<svg width="28" height="28" viewBox="0 0 28 28" fill="none" xmlns="http://www.w3.org/2000/svg">
<rect x="0.5" y="0.5" width="27" height="27" rx="13.5" stroke="#ADBCC3"/>
<path d="M6.8407 13.47C6.8407 12.2433 7.11404 11.3433 7.6607 10.77C8.21404 10.19 9.07404 9.9 10.2407 9.9C11.4074 9.9 12.2607 10.19 12.8007 10.77C13.3474 11.3433 13.6207 12.2433 13.6207 13.47C13.6207 14.7367 13.3474 15.6667 12.8007 16.26C12.2607 16.8533 11.4074 17.15 10.2407 17.15C9.07404 17.15 8.21404 16.8533 7.6607 16.26C7.11404 15.6667 6.8407 14.7367 6.8407 13.47ZM10.2407 16.08C11.0007 16.08 11.5474 15.8833 11.8807 15.49C12.214 15.0833 12.3807 14.41 12.3807 13.47C12.3807 12.57 12.214 11.93 11.8807 11.55C11.554 11.1633 11.0074 10.97 10.2407 10.97C9.47404 10.97 8.9207 11.1633 8.5807 11.55C8.24737 11.9367 8.0807 12.5767 8.0807 13.47C8.0807 14.41 8.24737 15.0833 8.5807 15.49C8.91404 15.8833 9.46737 16.08 10.2407 16.08ZM17.9902 12.55C20.0502 12.55 21.0802 13.3 21.0802 14.8C21.0802 16.3667 20.0136 17.15 17.8802 17.15C16.6736 17.15 15.8269 16.8767 15.3402 16.33C14.8536 15.7833 14.6102 14.8833 14.6102 13.63C14.6102 12.35 14.8836 11.41 15.4302 10.81C15.9836 10.2033 16.8336 9.9 17.9802 9.9C19.6602 9.9 20.5702 10.5433 20.7102 11.83H19.5202C19.4736 11.5167 19.3302 11.2933 19.0902 11.16C18.8502 11.0267 18.4802 10.96 17.9802 10.96C17.2469 10.96 16.7269 11.1033 16.4202 11.39C16.1002 11.69 15.9169 12.19 15.8702 12.89C16.4102 12.6633 17.1169 12.55 17.9902 12.55ZM17.8802 16.1C19.1936 16.1 19.8502 15.67 19.8502 14.81C19.8502 14.3833 19.6969 14.0767 19.3902 13.89C19.0836 13.7033 18.5802 13.61 17.8802 13.61C17.0469 13.61 16.3702 13.72 15.8502 13.94C15.8836 14.7733 16.0402 15.34 16.3202 15.64C16.6069 15.9467 17.1269 16.1 17.8802 16.1Z" fill="#23282B"/>
</svg>
