<svg width="121" height="48" viewBox="0 0 121 48" fill="none" xmlns="http://www.w3.org/2000/svg">
<rect x="0.5" y="0.5" width="120" height="47" rx="23.5" fill="#EBEFF0"/>
<path d="M31.248 23.424L34.4 16.912H36.048L31.712 25.92C31.36 26.7307 30.9013 27.3227 30.336 27.696C29.7813 28.0587 29.056 28.24 28.16 28.24C27.456 28.24 26.8213 28.128 26.256 27.904V26.544C26.864 26.7893 27.4987 26.912 28.16 26.912C28.672 26.912 29.0827 26.8053 29.392 26.592C29.712 26.368 30 26 30.256 25.488L30.608 24.752H28.512L24.48 16.912H26.128L29.488 23.424H31.248ZM41.1499 28.24C39.4752 28.24 38.2379 27.8773 37.4379 27.152C36.6379 26.4267 36.2379 25.312 36.2379 23.808C36.2379 22.304 36.6379 21.1947 37.4379 20.48C38.2379 19.7547 39.4752 19.392 41.1499 19.392C42.5152 19.392 43.5925 19.6587 44.3819 20.192C45.1712 20.7147 45.6139 21.472 45.7099 22.464H44.2379C44.1632 21.8773 43.8592 21.4347 43.3259 21.136C42.8032 20.8267 42.0779 20.672 41.1499 20.672C39.9445 20.672 39.0752 20.9173 38.5419 21.408C38.0085 21.8987 37.7419 22.704 37.7419 23.824C37.7419 24.944 38.0032 25.7493 38.5259 26.24C39.0592 26.72 39.9339 26.96 41.1499 26.96C42.0779 26.96 42.8085 26.7947 43.3419 26.464C43.8752 26.1227 44.1845 25.6373 44.2699 25.008H45.7579C45.6512 26.0427 45.1979 26.8427 44.3979 27.408C43.5979 27.9627 42.5152 28.24 41.1499 28.24ZM48.6478 19.632H55.8318V28H54.3278V20.896H50.1518V22.992C50.1518 24.7627 49.8638 26.08 49.2878 26.944C48.7118 27.7973 47.8264 28.2293 46.6318 28.24V26.976C47.3251 26.9333 47.8318 26.592 48.1518 25.952C48.4824 25.3013 48.6478 24.3147 48.6478 22.992V19.632ZM64.5654 19.632H66.1174L63.2854 28H63.2694L62.8054 29.36C62.528 30.1813 62.0907 30.784 61.4934 31.168C60.896 31.552 60.1174 31.744 59.1574 31.744C58.72 31.744 58.3467 31.6747 58.0374 31.536V30.256C58.3147 30.3947 58.672 30.464 59.1094 30.464C60.3147 30.464 61.0827 29.952 61.4134 28.928L61.7334 28H60.4374L57.6214 19.632H59.1734L61.5734 26.736H62.1494L64.5654 19.632ZM67.8894 28V19.632H73.9214V20.896H69.3934V28H67.8894ZM82.257 19.632H84.881V28H83.377V20.896H83.041L78.497 28H75.905V19.632H77.409V26.736H77.713L82.257 19.632Z" fill="#34424D"/>
<path d="M97 25L94 22L91 25" stroke="#34424D" stroke-linecap="square" stroke-linejoin="round"/>
<rect x="0.5" y="0.5" width="120" height="47" rx="23.5" stroke="#EBEFF0"/>
</svg>
