<svg width="126" height="40" viewBox="0 0 126 40" fill="none" xmlns="http://www.w3.org/2000/svg">
<path d="M18.3057 12.2187C16.7373 9.71337 14.1755 8.10815 10.7929 8.10815C4.92191 8.10815 0.59375 12.9465 0.59375 18.919C0.59375 24.8914 4.92191 29.7298 10.7929 29.7298C14.1755 29.7298 16.7405 28.1213 18.3057 25.6193V29.2131H22.2154V8.62156H18.3057V12.2187ZM11.4285 25.9117C7.6306 25.9117 4.55777 22.7793 4.55777 18.9222C4.55777 15.0587 7.63699 11.9262 11.4285 11.9262C15.2232 11.9262 18.2993 15.0587 18.2993 18.9222C18.3057 22.7793 15.2264 25.9117 11.4285 25.9117Z" fill="#23282B"/>
<path d="M115.32 25.9085C111.411 25.9085 108.248 22.776 108.248 18.919C108.248 15.0554 111.417 11.923 115.32 11.923C118.404 11.923 121.022 13.8791 121.988 16.6021H126C124.924 11.7475 120.558 8.10815 115.317 8.10815C109.274 8.10815 104.378 12.9465 104.378 18.919C104.378 24.8914 109.274 29.7298 115.317 29.7298C120.551 29.7298 124.924 26.0937 126 21.2358H121.988C121.022 23.9523 118.404 25.9085 115.32 25.9085Z" fill="#23282B"/>
<path d="M70.1999 12.1919C68.6313 9.70291 66.0692 8.10815 62.686 8.10815C56.8142 8.10815 52.4854 12.915 52.4854 18.8485C52.4854 24.7821 56.8142 29.5889 62.686 29.5889C66.0692 29.5889 68.6345 27.991 70.1999 25.5052V29.4243C70.1999 33.3789 67.8869 36.3005 63.4783 36.3005C60.7181 36.3005 58.5584 35.1415 57.6064 32.7526H53.3288C54.5395 37.2657 58.715 40 63.4783 40C69.8453 40 74.107 35.3514 74.107 29.4243V8.61822H70.1967V12.1919H70.1999ZM63.3281 25.7957C59.5296 25.7957 56.4563 22.6837 56.4563 18.8518C56.4563 15.0134 59.536 11.9013 63.3281 11.9013C67.1266 11.9013 70.1999 15.0134 70.1999 18.8518C70.1999 22.6837 67.1202 25.7957 63.3281 25.7957Z" fill="#23282B"/>
<path d="M37.3573 5.94595C40.9161 5.94595 43.8949 3.40505 44.6483 0H40.8972C40.3645 1.738 39.132 2.78273 37.351 2.78273C35.5732 2.78273 34.3375 1.738 33.8048 0H30.0537C30.826 3.40505 33.7985 5.94595 37.3573 5.94595Z" fill="#23282B"/>
<path d="M30.5036 27.2671V8.64868H26.54V29.1892H33.4666L44.2046 10.5773V29.1892H48.1617V8.64868H41.2351L30.5036 27.2671Z" fill="#23282B"/>
<path d="M82.3952 27.2671V8.64868H78.4316V29.1892H85.3582L96.0962 10.5773V29.1892H100.053V8.64868H93.1267L82.3952 27.2671Z" fill="#23282B"/>
</svg>
