<svg width="28" height="28" viewBox="0 0 28 28" fill="none" xmlns="http://www.w3.org/2000/svg">
<rect x="0.5" y="0.5" width="27" height="27" rx="13.5" stroke="#ADBCC3"/>
<path d="M6.83094 13.47C6.83094 12.2433 7.10427 11.3433 7.65094 10.77C8.20427 10.19 9.06427 9.9 10.2309 9.9C11.3976 9.9 12.2509 10.19 12.7909 10.77C13.3376 11.3433 13.6109 12.2433 13.6109 13.47C13.6109 14.7367 13.3376 15.6667 12.7909 16.26C12.2509 16.8533 11.3976 17.15 10.2309 17.15C9.06427 17.15 8.20427 16.8533 7.65094 16.26C7.10427 15.6667 6.83094 14.7367 6.83094 13.47ZM10.2309 16.08C10.9909 16.08 11.5376 15.8833 11.8709 15.49C12.2043 15.0833 12.3709 14.41 12.3709 13.47C12.3709 12.57 12.2043 11.93 11.8709 11.55C11.5443 11.1633 10.9976 10.97 10.2309 10.97C9.46427 10.97 8.91094 11.1633 8.57094 11.55C8.2376 11.9367 8.07094 12.5767 8.07094 13.47C8.07094 14.41 8.2376 15.0833 8.57094 15.49C8.90427 15.8833 9.4576 16.08 10.2309 16.08ZM18.9305 10.05V15.93H20.9805V17H14.8105V15.93H17.6705V11.33L15.0405 12.45V11.27L17.6605 10.05H18.9305Z" fill="#23282B"/>
</svg>
