<svg width="28" height="28" viewBox="0 0 28 28" fill="none" xmlns="http://www.w3.org/2000/svg">
<rect x="0.5" y="0.5" width="27" height="27" rx="13.5" stroke="#ADBCC3"/>
<path d="M6.8407 13.47C6.8407 12.2433 7.11404 11.3433 7.6607 10.77C8.21404 10.19 9.07404 9.9 10.2407 9.9C11.4074 9.9 12.2607 10.19 12.8007 10.77C13.3474 11.3433 13.6207 12.2433 13.6207 13.47C13.6207 14.7367 13.3474 15.6667 12.8007 16.26C12.2607 16.8533 11.4074 17.15 10.2407 17.15C9.07404 17.15 8.21404 16.8533 7.6607 16.26C7.11404 15.6667 6.8407 14.7367 6.8407 13.47ZM10.2407 16.08C11.0007 16.08 11.5474 15.8833 11.8807 15.49C12.214 15.0833 12.3807 14.41 12.3807 13.47C12.3807 12.57 12.214 11.93 11.8807 11.55C11.554 11.1633 11.0074 10.97 10.2407 10.97C9.47404 10.97 8.9207 11.1633 8.5807 11.55C8.24737 11.9367 8.0807 12.5767 8.0807 13.47C8.0807 14.41 8.24737 15.0833 8.5807 15.49C8.91404 15.8833 9.46737 16.08 10.2407 16.08ZM15.8902 15.94H20.9702V17H14.6502V16.51C14.6502 15.99 14.7702 15.55 15.0102 15.19C15.2502 14.8233 15.6436 14.5 16.1902 14.22L18.8302 12.86C19.1236 12.7067 19.3269 12.56 19.4402 12.42C19.5602 12.2733 19.6202 12.1 19.6202 11.9C19.6202 11.6 19.4602 11.37 19.1402 11.21C18.8269 11.05 18.3869 10.97 17.8202 10.97C17.1736 10.97 16.7002 11.07 16.4002 11.27C16.1002 11.4633 15.9436 11.79 15.9302 12.25H14.7802C14.8002 11.4433 15.0636 10.85 15.5702 10.47C16.0769 10.09 16.8269 9.9 17.8202 9.9C18.7936 9.9 19.5469 10.0733 20.0802 10.42C20.6136 10.7667 20.8802 11.2567 20.8802 11.89C20.8802 12.27 20.7802 12.5967 20.5802 12.87C20.3802 13.1433 20.0669 13.39 19.6402 13.61L16.7702 15.09C16.4569 15.25 16.2402 15.3867 16.1202 15.5C16.0002 15.6133 15.9236 15.76 15.8902 15.94Z" fill="#23282B"/>
</svg>
