<svg width="28" height="28" viewBox="0 0 28 28" fill="none" xmlns="http://www.w3.org/2000/svg">
<rect x="0.5" y="0.5" width="27" height="27" rx="13.5" stroke="#ADBCC3"/>
<path d="M6.83582 13.47C6.83582 12.2433 7.10915 11.3433 7.65582 10.77C8.20915 10.19 9.06915 9.9 10.2358 9.9C11.4025 9.9 12.2558 10.19 12.7958 10.77C13.3425 11.3433 13.6158 12.2433 13.6158 13.47C13.6158 14.7367 13.3425 15.6667 12.7958 16.26C12.2558 16.8533 11.4025 17.15 10.2358 17.15C9.06915 17.15 8.20915 16.8533 7.65582 16.26C7.10915 15.6667 6.83582 14.7367 6.83582 13.47ZM10.2358 16.08C10.9958 16.08 11.5425 15.8833 11.8758 15.49C12.2092 15.0833 12.3758 14.41 12.3758 13.47C12.3758 12.57 12.2092 11.93 11.8758 11.55C11.5492 11.1633 11.0025 10.97 10.2358 10.97C9.46915 10.97 8.91582 11.1633 8.57582 11.55C8.24249 11.9367 8.07582 12.5767 8.07582 13.47C8.07582 14.41 8.24249 15.0833 8.57582 15.49C8.90915 15.8833 9.46249 16.08 10.2358 16.08ZM19.5254 13.28V13.45C19.9654 13.5833 20.3054 13.8 20.5454 14.1C20.7854 14.3933 20.9054 14.75 20.9054 15.17C20.9054 15.8167 20.632 16.31 20.0854 16.65C19.5454 16.9833 18.7487 17.15 17.6954 17.15C15.662 17.15 14.5954 16.4167 14.4954 14.95H15.6954C15.742 15.35 15.9254 15.64 16.2454 15.82C16.572 16 17.0654 16.09 17.7254 16.09C18.3987 16.09 18.8854 16.0067 19.1854 15.84C19.492 15.6667 19.6454 15.3833 19.6454 14.99C19.6454 14.27 18.9854 13.91 17.6654 13.91H16.5854V12.86H17.6654C18.8787 12.86 19.4854 12.5233 19.4854 11.85C19.4854 11.5367 19.3454 11.31 19.0654 11.17C18.7854 11.03 18.342 10.96 17.7354 10.96C17.1354 10.96 16.682 11.05 16.3754 11.23C16.0754 11.41 15.9054 11.6933 15.8654 12.08H14.6654C14.7987 10.6267 15.8254 9.9 17.7454 9.9C18.712 9.9 19.4487 10.0567 19.9554 10.37C20.462 10.6767 20.7154 11.13 20.7154 11.73C20.7154 12.4433 20.3187 12.96 19.5254 13.28Z" fill="#23282B"/>
</svg>
