<svg width="28" height="28" viewBox="0 0 28 28" fill="none" xmlns="http://www.w3.org/2000/svg">
<rect x="0.5" y="0.5" width="27" height="27" rx="13.5" stroke="#ADBCC3"/>
<path d="M6.8407 13.47C6.8407 12.2433 7.11404 11.3433 7.6607 10.77C8.21404 10.19 9.07404 9.9 10.2407 9.9C11.4074 9.9 12.2607 10.19 12.8007 10.77C13.3474 11.3433 13.6207 12.2433 13.6207 13.47C13.6207 14.7367 13.3474 15.6667 12.8007 16.26C12.2607 16.8533 11.4074 17.15 10.2407 17.15C9.07404 17.15 8.21404 16.8533 7.6607 16.26C7.11404 15.6667 6.8407 14.7367 6.8407 13.47ZM10.2407 16.08C11.0007 16.08 11.5474 15.8833 11.8807 15.49C12.214 15.0833 12.3807 14.41 12.3807 13.47C12.3807 12.57 12.214 11.93 11.8807 11.55C11.554 11.1633 11.0074 10.97 10.2407 10.97C9.47404 10.97 8.9207 11.1633 8.5807 11.55C8.24737 11.9367 8.0807 12.5767 8.0807 13.47C8.0807 14.41 8.24737 15.0833 8.5807 15.49C8.91404 15.8833 9.46737 16.08 10.2407 16.08ZM17.9102 12.36C19.9702 12.36 21.0002 13.17 21.0002 14.79C21.0002 15.5833 20.7302 16.1767 20.1902 16.57C19.6569 16.9567 18.8402 17.15 17.7402 17.15C15.7069 17.15 14.6536 16.3733 14.5802 14.82H15.7902C15.8169 15.2733 15.9836 15.6 16.2902 15.8C16.5969 15.9933 17.0869 16.09 17.7602 16.09C18.4669 16.09 18.9769 15.99 19.2902 15.79C19.6036 15.5833 19.7602 15.25 19.7602 14.79C19.7602 14.31 19.6036 13.9633 19.2902 13.75C18.9836 13.53 18.4836 13.42 17.7902 13.42C17.1236 13.42 16.5536 13.5333 16.0802 13.76L14.9202 13.65L15.2802 10.05H20.4802V11.12H16.3902L16.2402 12.66C16.7602 12.46 17.3169 12.36 17.9102 12.36Z" fill="#23282B"/>
</svg>
